PathFileType	4	(X/Y/Z)	/Users/itak/Documents/Research/Walk-IL/dataset/trc/00518_00183.trc
DataRate	CameraRate	NumFrames	NumMarkers	Units	OrigDataRate	OrigDataStartFrame	OrigNumFrames
100.000000	100.000000	4	53	mm	100.000000	316	506
Frame#	Time	RPSI			LPSI			L3			STRN			T10			C7			CLAV			RBAK			LBAK			LSHO			LUPA			LAEL			LAOL			LWTS			LWPS			LFRA			LIFD			LHPS			LHTS			RSHO			RUPA			RAEL			RAOL			RWTS			RWPS			RFRA			RIFD			RHTS			RHPS			RBHD			LFHD			RFHD			LBHD			LHIP			RHIP			RASI			LASI			LKNE			LTHI			LANK			LTIP			LTOE			LMT1			LMT5			LHEE			RKNE			RANK			RTIP			RTOE			RMT1			RMT5			RHEE			RTHI			
		X1	Y1	Z1	X2	Y2	Z2	X3	Y3	Z3	X4	Y4	Z4	X5	Y5	Z5	X6	Y6	Z6	X7	Y7	Z7	X8	Y8	Z8	X9	Y9	Z9	X10	Y10	Z10	X11	Y11	Z11	X12	Y12	Z12	X13	Y13	Z13	X14	Y14	Z14	X15	Y15	Z15	X16	Y16	Z16	X17	Y17	Z17	X18	Y18	Z18	X19	Y19	Z19	X20	Y20	Z20	X21	Y21	Z21	X22	Y22	Z22	X23	Y23	Z23	X24	Y24	Z24	X25	Y25	Z25	X26	Y26	Z26	X27	Y27	Z27	X28	Y28	Z28	X29	Y29	Z29	X30	Y30	Z30	X31	Y31	Z31	X32	Y32	Z32	X33	Y33	Z33	X34	Y34	Z34	X35	Y35	Z35	X36	Y36	Z36	X37	Y37	Z37	X38	Y38	Z38	X39	Y39	Z39	X40	Y40	Z40	X41	Y41	Z41	X42	Y42	Z42	X43	Y43	Z43	X44	Y44	Z44	X45	Y45	Z45	X46	Y46	Z46	X47	Y47	Z47	X48	Y48	Z48	X49	Y49	Z49	X50	Y50	Z50	X51	Y51	Z51	X52	Y52	Z52	X53	Y53	Z53	

317	3.16	647.8843994140625	934.1635131835938	-42.37707138061523	733.328369140625	931.215576171875	-133.1915130615234	682.2258911132812	1000.4697265625	-93.28339385986328	839.8316040039062	1176.864013671875	41.90321731567383	661.4223022460938	1103.817504882812	-97.22198486328125	680.0369262695312	1334.473876953125	-70.20105743408203	805.7088012695312	1269.487670898438	19.39086151123047	595.1519165039062	1208.73974609375	-30.1095027923584	712.4481811523438	1280.160888671875	-153.6900787353516	826.95654296875	1335.524291992188	-160.3914031982422	850.3889770507812	1212.380004882812	-220.7120056152344	874.634033203125	1005.878173828125	-252.063720703125	781.682373046875	991.989013671875	-218.7826843261719	949.1572265625	818.3270263671875	-191.5096130371094	890.6443481445312	781.8812866210938	-256.3717651367188	894.3745727539062	920.7442016601562	-251.1464385986328	957.4454956054688	661.1653442382812	-190.0265502929688	916.0421142578125	732.1734619140625	-248.2096862792969	967.7627563476562	742.6566772460938	-210.3182220458984	633.1576538085938	1330.031982421875	78.83344268798828	589.8588256835938	1260.979736328125	117.0837783813477	599.25537109375	996.5187377929688	182.0653533935547	578.47119140625	969.565673828125	125.1259231567383	741.3754272460938	831.3189697265625	236.8665924072266	660.7984619140625	788.225341796875	244.7450561523438	607.4053955078125	943.7235107421875	196.8704528808594	778.5263061523438	681.8194580078125	273.3710327148438	761.0706787109375	749.8151245117188	283.2550354003906	695.0398559570312	727.9925537109375	270.4456787109375	658.56103515625	1484.828369140625	31.22357749938965	845.1835327148438	1555.42919921875	26.3884449005127	756.536376953125	1532.585327148438	114.8453598022461	759.7428588867188	1511.232299804688	-90.75074768066406	907.3662719726562	870.984130859375	-149.0469512939453	639.5499877929688	832.3978881835938	119.7646636962891	755.3462524414062	884.0076293945312	142.7466735839844	917.6819458007812	911.2931518554688	-35.66440582275391	1045.725341796875	502.8971862792969	-6.669803619384766	1000.681335449219	641.167236328125	-65.42039489746094	1111.31494140625	68.65115356445312	-67.87297058105469	1078.862182617188	361.8588562011719	-24.50378608703613	1179.136840820312	68.32547760009766	118.5210037231445	1110.721801757812	57.18420791625977	82.76560974121094	1185.319946289062	65.28500366210938	10.15328311920166	1035.829711914062	57.57179641723633	-64.99040222167969	697.0642700195312	449.6477661132812	44.51772308349609	596.6488037109375	51.43151473999023	-96.63912963867188	701.1690063476562	308.4771423339844	-4.020597457885742	796.8416748046875	34.52687835693359	-49.37686920166016	752.5232543945312	38.2386589050293	-111.9912948608398	691.896728515625	41.50162124633789	-37.21578216552734	570.0245361328125	47.67470550537109	-161.7796630859375	671.7708740234375	700.9141845703125	124.6785049438477	
318	3.17	656.8915405273438	933.2492065429688	-40.12313461303711	743.839111328125	930.17724609375	-129.4147338867188	691.9625854492188	999.0277099609375	-90.55251312255859	847.2527465820312	1175.347900390625	46.92044067382812	670.9685668945312	1102.348266601562	-94.98570251464844	689.3082885742188	1333.032104492188	-67.61160278320312	813.5607299804688	1267.982666015625	23.85956954956055	603.6953735351562	1207.364990234375	-28.97389221191406	722.9558715820312	1278.680297851562	-150.5974578857422	837.5494384765625	1334.010131835938	-155.5912780761719	861.6808471679688	1210.914184570312	-215.6773529052734	885.9174194335938	1004.39306640625	-247.0422058105469	792.4741821289062	990.6912231445312	-214.9381408691406	959.005859375	816.3798828125	-185.9382781982422	901.2747802734375	780.332763671875	-251.7554473876953	905.4043579101562	919.165771484375	-246.0878753662109	966.4749145507812	659.1804809570312	-184.6055603027344	925.7283935546875	729.9482421875	-242.6973266601562	977.51318359375	740.6296997070312	-204.5777435302734	640.143310546875	1328.544677734375	80.73924255371094	596.4625244140625	1259.390869140625	118.5815277099609	607.6237182617188	995.2501831054688	185.0846557617188	586.9808349609375	967.847900390625	128.3456726074219	750.8660278320312	831.5338134765625	241.3602600097656	670.6810302734375	787.798095703125	249.3120574951172	616.1260375976562	942.626953125	200.2885589599609	789.2496337890625	682.5989379882812	278.8939514160156	771.1621704101562	750.5072021484375	288.3180236816406	705.4052734375	728.045166015625	275.4265747070312	666.9105834960938	1483.54443359375	34.15159225463867	853.7822875976562	1553.647216796875	31.08764457702637	764.1923217773438	1530.922485351562	118.6619186401367	769.1923828125	1509.75732421875	-86.82992553710938	917.9710693359375	869.73828125	-142.5722503662109	645.1922607421875	831.2941284179688	121.7745590209961	760.8049926757812	882.3717651367188	146.3614349365234	926.5629272460938	909.8643798828125	-29.01620101928711	1054.9833984375	501.9752502441406	-0.3209410011768341	1010.249938964844	639.9369506835938	-59.35499572753906	1135.975463867188	67.96201324462891	-47.9040641784668	1093.022827148438	361.5146484375	-13.53057193756104	1193.830322265625	71.13800048828125	142.0833129882812	1127.630981445312	58.79024887084961	102.83984375	1206.14208984375	66.49679565429688	34.01850128173828	1060.474609375	56.39014053344727	-48.64536666870117	701.6452026367188	448.6767272949219	46.05451202392578	597.0096435546875	51.97429656982422	-96.93076324462891	704.636962890625	307.59521484375	-2.975878477096558	796.9127197265625	34.49727249145508	-49.30327987670898	752.66748046875	38.23176956176758	-111.9247131347656	692.0902709960938	41.68442535400391	-37.31789398193359	570.3809814453125	48.73165512084961	-162.1099090576172	676.8048095703125	699.7274169921875	126.6811752319336	
319	3.18	665.9733276367188	932.3238525390625	-37.84564971923828	754.3991088867188	929.1529541015625	-125.5394668579102	701.7247924804688	997.56005859375	-87.76406860351562	854.7367553710938	1173.833618164062	52.02803421020508	680.5661010742188	1100.870483398438	-92.69471740722656	698.6776123046875	1331.585815429688	-64.93412017822266	821.4912719726562	1266.484497070312	28.4115161895752	612.385986328125	1205.985961914062	-27.76574897766113	733.5739135742188	1277.195068359375	-147.4057159423828	848.230712890625	1332.480346679688	-150.6855621337891	873.052734375	1209.421630859375	-210.5157928466797	897.2767333984375	1002.876098632812	-241.8975677490234	803.3607788085938	989.3735961914062	-210.9636383056641	968.8991088867188	814.3908081054688	-180.2876129150391	911.9583740234375	778.7592163085938	-247.0401306152344	916.4970092773438	917.5582885742188	-240.9218902587891	975.5243530273438	657.1581420898438	-179.1387023925781	935.45458984375	727.6802978515625	-237.1003570556641	987.2920532226562	738.5579223632812	-198.7707824707031	647.2352294921875	1327.063842773438	82.69392395019531	603.1436767578125	1257.80517578125	120.1050872802734	615.9097290039062	993.9772338867188	187.9947509765625	595.429443359375	966.169677734375	131.4366455078125	760.1055297851562	831.5827026367188	245.7480926513672	680.298095703125	787.22119140625	253.6432342529297	624.7197875976562	941.5206298828125	203.5748138427734	799.5589599609375	683.1593627929688	284.1905212402344	780.9075927734375	750.9855346679688	293.2138061523438	715.431640625	727.9400634765625	280.1327819824219	675.29443359375	1482.236450195312	37.0974235534668	862.375	1551.93994140625	35.81058120727539	771.8573608398438	1529.333618164062	122.4956970214844	778.6817626953125	1508.24560546875	-82.86771392822266	928.612060546875	868.5360717773438	-135.9985198974609	650.8495483398438	830.1764526367188	123.7872924804688	766.2864990234375	880.7066650390625	150.0096435546875	935.4078979492188	908.4163208007812	-22.27745056152344	1064.321533203125	501.0652770996094	5.951014995574951	1019.953552246094	638.833251953125	-53.19171524047852	1158.869995117188	67.94861602783203	-28.20404815673828	1106.614379882812	361.3498840332031	-2.806758165359497	1207.242919921875	73.82600402832031	164.6720428466797	1143.248413085938	60.54025268554688	122.2502288818359	1225.279663085938	68.0430908203125	57.16831207275391	1083.496948242188	55.91192626953125	-32.32894515991211	706.3262939453125	447.7073974609375	47.59777450561523	597.4235229492188	52.62656784057617	-97.25502777099609	708.1898193359375	306.7286376953125	-1.916646122932434	796.9989013671875	34.47087478637695	-49.22351837158203	752.8280029296875	38.24980163574219	-111.8458938598633	692.3096313476562	41.90638732910156	-37.43341445922852	570.8018188476562	49.94934463500977	-162.4772338867188	681.8773803710938	698.5320434570312	128.6699829101562	
320	3.19	675.1331176757812	931.3900756835938	-35.56129455566406	765.0277099609375	928.1428833007812	-121.5775985717773	711.5215454101562	996.0879516601562	-84.91291046142578	862.29443359375	1172.331909179688	57.21924591064453	690.20751953125	1099.40283203125	-90.35097503662109	708.1483154296875	1330.14990234375	-62.15262222290039	829.5106811523438	1265.003173828125	33.04742431640625	621.2332153320312	1204.615234375	-26.45331764221191	744.293212890625	1275.71923828125	-144.0997924804688	858.9925537109375	1330.949462890625	-145.6743927001953	884.4939575195312	1207.9130859375	-205.2256011962891	908.7077026367188	1001.341491699219	-236.6233673095703	814.3458251953125	988.0443725585938	-206.8468933105469	978.8441772460938	812.37451171875	-174.5641937255859	922.6896362304688	777.1748046875	-242.2177124023438	927.6495971679688	915.9343872070312	-235.6433868408203	984.6085815429688	655.1134033203125	-173.6412658691406	945.2229614257812	725.3868408203125	-231.4257965087891	997.10595703125	736.4590454101562	-192.9114685058594	654.4506225585938	1325.60205078125	84.71915435791016	609.9324951171875	1256.230346679688	121.6696548461914	624.1100463867188	992.6983032226562	190.7950286865234	603.8108520507812	964.53466796875	134.3944702148438	769.0897216796875	831.4651489257812	250.0194091796875	689.6454467773438	786.4934692382812	257.72705078125	633.17919921875	940.4004516601562	206.7256011962891	809.4414672851562	683.498291015625	289.2709655761719	790.2930297851562	751.2494506835938	297.940673828125	725.1128540039062	727.677001953125	284.5584106445312	683.720947265625	1480.919311523438	40.06429290771484	870.9680786132812	1550.326171875	40.5571174621582	779.5404663085938	1527.837768554688	126.3487701416016	788.22509765625	1506.71728515625	-78.86610412597656	939.3027954101562	867.3853149414062	-129.3336639404297	656.5518798828125	829.0626831054688	125.7900314331055	771.818603515625	879.0362548828125	153.6975250244141	944.2249755859375	906.9632568359375	-15.45845031738281	1073.734985351562	500.1898498535156	12.20541191101074	1029.775268554688	637.8651733398438	-46.88275146484375	1179.965576171875	68.47908782958984	-8.937346458435059	1119.635009765625	361.3218688964844	7.651744842529297	1219.4912109375	76.27912139892578	186.16943359375	1157.646728515625	62.31045150756836	140.8995208740234	1242.777587890625	69.79437255859375	79.43448638916016	1104.843994140625	56.00094223022461	-16.1737003326416	711.1163330078125	446.7512512207031	49.16123580932617	597.8931884765625	53.40673828125	-97.60540008544922	711.8238525390625	305.8900756835938	-0.833547830581665	797.1007690429688	34.44771194458008	-49.13748168945312	753.0100708007812	38.29944610595703	-111.7589874267578	692.5564575195312	42.17150497436523	-37.55820083618164	571.2926025390625	51.35001373291016	-162.8742218017578	687.0127563476562	697.3436279296875	130.6468658447266	
